<mxfile host="app.diagrams.net" modified="2021-08-26T17:31:37.595Z" agent="5.0 (X11; Linux x86_64) AppleWebKit/537.36 (KHTML, like Gecko) Chrome/91.0.4472.114 Safari/537.36" etag="NlwOUn6INlvbSHKDD6OM" version="14.9.9" type="github">
  <diagram id="-vkuxwzAvVH7Rz_sly9j" name="Page-1">
    <mxGraphModel dx="2495" dy="2098" grid="1" gridSize="10" guides="1" tooltips="1" connect="1" arrows="1" fold="1" page="1" pageScale="1" pageWidth="1169" pageHeight="827" math="0" shadow="0">
      <root>
        <mxCell id="0" />
        <mxCell id="1" parent="0" />
        <object label="&lt;font style=&quot;font-size: 10px&quot;&gt;&lt;b&gt;%name%&lt;/b&gt;&lt;br style=&quot;font-size: 10px&quot;&gt;[Container]&lt;/font&gt;" placeholders="1" name="Android Framework" id="QSGKsO-Dh6E3M1oI7asi-1">
          <mxCell style="rounded=0;whiteSpace=wrap;html=1;strokeColor=#828282;fillColor=none;fontColor=#000000;align=left;labelPosition=center;verticalLabelPosition=middle;verticalAlign=bottom;dashed=1;strokeWidth=1;perimeterSpacing=0;spacing=2;spacingTop=0;fontSize=10;dashPattern=8 8;container=0;" parent="1" vertex="1">
            <mxGeometry x="-240" y="-30" width="570" height="590" as="geometry">
              <mxRectangle x="560" y="40" width="110" height="30" as="alternateBounds" />
            </mxGeometry>
          </mxCell>
        </object>
        <object label="&lt;font style=&quot;font-size: 10px&quot;&gt;&lt;b&gt;%name%&lt;/b&gt;&lt;br style=&quot;font-size: 10px&quot;&gt;[Container]&lt;/font&gt;" placeholders="1" name="Producer" id="QSGKsO-Dh6E3M1oI7asi-2">
          <mxCell style="rounded=0;whiteSpace=wrap;html=1;strokeColor=#828282;fillColor=none;fontColor=#000000;align=left;labelPosition=center;verticalLabelPosition=middle;verticalAlign=bottom;dashed=1;strokeWidth=1;perimeterSpacing=0;spacing=2;spacingTop=0;fontSize=10;dashPattern=8 8;container=0;" parent="1" vertex="1">
            <mxGeometry x="75" y="160" width="230" height="360" as="geometry">
              <mxRectangle x="560" y="40" width="110" height="30" as="alternateBounds" />
            </mxGeometry>
          </mxCell>
        </object>
        <object label="&lt;div&gt;&lt;span style=&quot;font-size: 14px&quot;&gt;&lt;b&gt;%name%&lt;/b&gt;&lt;/span&gt;&lt;/div&gt;&lt;div&gt;&lt;span style=&quot;font-size: 8px&quot;&gt;[Component: %technology%]&lt;/span&gt;&lt;/div&gt;&lt;div&gt;&lt;span style=&quot;font-size: 8px&quot;&gt;&lt;br&gt;&lt;/span&gt;&lt;/div&gt;&lt;div&gt;&lt;font size=&quot;1&quot;&gt;%description%&lt;/font&gt;&lt;/div&gt;" placeholders="1" name="Window" technology="C++" description="" id="QSGKsO-Dh6E3M1oI7asi-3">
          <mxCell style="rounded=0;whiteSpace=wrap;html=1;fillColor=#85baf0;fontColor=#000000;strokeColor=#6992BD;resizable=0;" parent="1" vertex="1">
            <mxGeometry x="100" y="182.5" width="180" height="120" as="geometry" />
          </mxCell>
        </object>
        <object label="&lt;div&gt;&lt;span style=&quot;font-size: 14px&quot;&gt;&lt;b&gt;%name%&lt;/b&gt;&lt;/span&gt;&lt;/div&gt;&lt;div&gt;&lt;span style=&quot;font-size: 8px&quot;&gt;[Component: %technology%]&lt;/span&gt;&lt;/div&gt;&lt;div&gt;&lt;span style=&quot;font-size: 8px&quot;&gt;&lt;br&gt;&lt;/span&gt;&lt;/div&gt;&lt;div&gt;&lt;font size=&quot;1&quot;&gt;%description%&lt;/font&gt;&lt;/div&gt;" placeholders="1" name="Free Buffer" technology="C++" description="" id="QSGKsO-Dh6E3M1oI7asi-8">
          <mxCell style="rounded=0;whiteSpace=wrap;html=1;fillColor=#85baf0;fontColor=#000000;strokeColor=#6992BD;resizable=0;" parent="1" vertex="1">
            <mxGeometry x="100" y="360" width="180" height="120" as="geometry" />
          </mxCell>
        </object>
        <object label="&lt;div&gt;&lt;span style=&quot;font-size: 14px&quot;&gt;&lt;b&gt;%name%&lt;/b&gt;&lt;/span&gt;&lt;/div&gt;&lt;div&gt;&lt;span style=&quot;font-size: 8px&quot;&gt;[Component: %technology%]&lt;/span&gt;&lt;/div&gt;&lt;div&gt;&lt;span style=&quot;font-size: 8px&quot;&gt;&lt;br&gt;&lt;/span&gt;&lt;/div&gt;&lt;div&gt;&lt;font size=&quot;1&quot;&gt;%description%&lt;/font&gt;&lt;/div&gt;" placeholders="1" name="BufferQueue" technology="C++" description="" id="QSGKsO-Dh6E3M1oI7asi-10">
          <mxCell style="rounded=0;whiteSpace=wrap;html=1;fillColor=#85baf0;fontColor=#000000;strokeColor=#6992BD;resizable=0;" parent="1" vertex="1">
            <mxGeometry x="520" y="185" width="180" height="120" as="geometry" />
          </mxCell>
        </object>
        <object label="&lt;div&gt;&lt;span style=&quot;font-size: 14px&quot;&gt;&lt;b&gt;%name%&lt;/b&gt;&lt;/span&gt;&lt;/div&gt;&lt;div&gt;&lt;span style=&quot;font-size: 8px&quot;&gt;[Component: %technology%]&lt;/span&gt;&lt;/div&gt;&lt;div&gt;&lt;span style=&quot;font-size: 8px&quot;&gt;&lt;br&gt;&lt;/span&gt;&lt;/div&gt;&lt;div&gt;&lt;font size=&quot;1&quot;&gt;%description%&lt;/font&gt;&lt;/div&gt;" placeholders="1" name="Back Buffer" technology="C++" description="" id="QSGKsO-Dh6E3M1oI7asi-13">
          <mxCell style="rounded=0;whiteSpace=wrap;html=1;fillColor=#85baf0;fontColor=#000000;strokeColor=#6992BD;resizable=0;" parent="1" vertex="1">
            <mxGeometry x="410" y="360" width="180" height="120" as="geometry" />
          </mxCell>
        </object>
        <object label="&lt;div&gt;&lt;span style=&quot;font-size: 14px&quot;&gt;&lt;b&gt;%name%&lt;/b&gt;&lt;/span&gt;&lt;/div&gt;&lt;div&gt;&lt;span style=&quot;font-size: 8px&quot;&gt;[Component: %technology%]&lt;/span&gt;&lt;/div&gt;&lt;div&gt;&lt;span style=&quot;font-size: 8px&quot;&gt;&lt;br&gt;&lt;/span&gt;&lt;/div&gt;&lt;div&gt;&lt;font size=&quot;1&quot;&gt;%description%&lt;/font&gt;&lt;/div&gt;" placeholders="1" name="Front Buffer" technology="C++" description="" id="QSGKsO-Dh6E3M1oI7asi-14">
          <mxCell style="rounded=0;whiteSpace=wrap;html=1;fillColor=#85baf0;fontColor=#000000;strokeColor=#6992BD;resizable=0;" parent="1" vertex="1">
            <mxGeometry x="630" y="360" width="180" height="120" as="geometry" />
          </mxCell>
        </object>
        <object label="&lt;div&gt;&lt;span style=&quot;font-size: 14px&quot;&gt;&lt;b&gt;%name%&lt;/b&gt;&lt;/span&gt;&lt;/div&gt;&lt;div&gt;&lt;span style=&quot;font-size: 8px&quot;&gt;[Component: %technology%]&lt;/span&gt;&lt;/div&gt;&lt;div&gt;&lt;span style=&quot;font-size: 8px&quot;&gt;&lt;br&gt;&lt;/span&gt;&lt;/div&gt;&lt;div&gt;&lt;font size=&quot;1&quot;&gt;%description%&lt;/font&gt;&lt;/div&gt;" placeholders="1" name="Layer" technology="C++" description="" id="QSGKsO-Dh6E3M1oI7asi-15">
          <mxCell style="rounded=0;whiteSpace=wrap;html=1;fillColor=#85baf0;fontColor=#000000;strokeColor=#6992BD;resizable=0;" parent="1" vertex="1">
            <mxGeometry x="920" y="185" width="180" height="120" as="geometry" />
          </mxCell>
        </object>
        <object label="&lt;div&gt;&lt;span style=&quot;font-size: 14px&quot;&gt;&lt;b&gt;%name%&lt;/b&gt;&lt;/span&gt;&lt;/div&gt;&lt;div&gt;&lt;span style=&quot;font-size: 8px&quot;&gt;[Component: %technology%]&lt;/span&gt;&lt;/div&gt;&lt;div&gt;&lt;span style=&quot;font-size: 8px&quot;&gt;&lt;br&gt;&lt;/span&gt;&lt;/div&gt;&lt;div&gt;&lt;font size=&quot;1&quot;&gt;%description%&lt;/font&gt;&lt;/div&gt;" placeholders="1" name="Frame Buffer" technology="C++" description="" id="QSGKsO-Dh6E3M1oI7asi-16">
          <mxCell style="rounded=0;whiteSpace=wrap;html=1;fillColor=#85baf0;fontColor=#000000;strokeColor=#6992BD;resizable=0;" parent="1" vertex="1">
            <mxGeometry x="920" y="360" width="180" height="120" as="geometry" />
          </mxCell>
        </object>
        <object label="&lt;font style=&quot;font-size: 10px&quot;&gt;&lt;b&gt;%name%&lt;/b&gt;&lt;br style=&quot;font-size: 10px&quot;&gt;[Container]&lt;/font&gt;" placeholders="1" name="Queue" id="QSGKsO-Dh6E3M1oI7asi-17">
          <mxCell style="rounded=0;whiteSpace=wrap;html=1;strokeColor=#828282;fillColor=none;fontColor=#000000;align=left;labelPosition=center;verticalLabelPosition=middle;verticalAlign=bottom;dashed=1;strokeWidth=1;perimeterSpacing=0;spacing=2;spacingTop=0;fontSize=10;dashPattern=8 8;container=0;" parent="1" vertex="1">
            <mxGeometry x="390" y="-30" width="440" height="550" as="geometry">
              <mxRectangle x="560" y="40" width="110" height="30" as="alternateBounds" />
            </mxGeometry>
          </mxCell>
        </object>
        <object label="&lt;font style=&quot;font-size: 10px&quot;&gt;&lt;b&gt;%name%&lt;/b&gt;&lt;br style=&quot;font-size: 10px&quot;&gt;[Container]&lt;/font&gt;" placeholders="1" name="Consumer" id="QSGKsO-Dh6E3M1oI7asi-18">
          <mxCell style="rounded=0;whiteSpace=wrap;html=1;strokeColor=#828282;fillColor=none;fontColor=#000000;align=left;labelPosition=center;verticalLabelPosition=middle;verticalAlign=bottom;dashed=1;strokeWidth=1;perimeterSpacing=0;spacing=2;spacingTop=0;fontSize=10;dashPattern=8 8;container=0;" parent="1" vertex="1">
            <mxGeometry x="900" y="-30" width="220" height="550" as="geometry">
              <mxRectangle x="560" y="40" width="110" height="30" as="alternateBounds" />
            </mxGeometry>
          </mxCell>
        </object>
        <object label="&lt;font style=&quot;font-size: 10px&quot;&gt;&lt;b&gt;%name%&lt;/b&gt;&lt;br style=&quot;font-size: 10px&quot;&gt;[Container]&lt;/font&gt;" placeholders="1" name="SurfaceFlinger" id="QSGKsO-Dh6E3M1oI7asi-19">
          <mxCell style="rounded=0;whiteSpace=wrap;html=1;strokeColor=#828282;fillColor=none;fontColor=#000000;align=left;labelPosition=center;verticalLabelPosition=middle;verticalAlign=bottom;dashed=1;strokeWidth=1;perimeterSpacing=0;spacing=2;spacingTop=0;fontSize=10;dashPattern=8 8;container=0;" parent="1" vertex="1">
            <mxGeometry x="370" y="-230" width="780" height="790" as="geometry">
              <mxRectangle x="560" y="40" width="110" height="30" as="alternateBounds" />
            </mxGeometry>
          </mxCell>
        </object>
        <object label="&lt;b&gt;%name%&lt;/b&gt;&lt;br style=&quot;font-size: 10px&quot;&gt;[%technology%]" placeholders="1" name="dequeue()" technology="IBinder" id="QSGKsO-Dh6E3M1oI7asi-24">
          <mxCell style="endArrow=block;html=1;fontSize=10;fontColor=#404040;strokeWidth=1;endFill=1;dashed=1;dashPattern=8 8;strokeColor=#828282;elbow=vertical;exitX=0;exitY=0.75;exitDx=0;exitDy=0;entryX=1;entryY=0.75;entryDx=0;entryDy=0;" parent="1" source="QSGKsO-Dh6E3M1oI7asi-10" target="QSGKsO-Dh6E3M1oI7asi-3" edge="1">
            <mxGeometry width="50" height="50" relative="1" as="geometry">
              <mxPoint x="280" y="320" as="sourcePoint" />
              <mxPoint x="282" y="256" as="targetPoint" />
            </mxGeometry>
          </mxCell>
        </object>
        <object label="&lt;b&gt;%name%&lt;/b&gt;&lt;br style=&quot;font-size: 10px&quot;&gt;[%technology%]" placeholders="1" name="queue()" technology="IBinder" id="QSGKsO-Dh6E3M1oI7asi-26">
          <mxCell style="endArrow=block;html=1;fontSize=10;fontColor=#404040;strokeWidth=1;endFill=1;dashed=1;dashPattern=8 8;strokeColor=#828282;elbow=vertical;entryX=-0.011;entryY=0.2;entryDx=0;entryDy=0;entryPerimeter=0;" parent="1" target="QSGKsO-Dh6E3M1oI7asi-10" edge="1">
            <mxGeometry width="50" height="50" relative="1" as="geometry">
              <mxPoint x="280" y="209" as="sourcePoint" />
              <mxPoint x="550" y="208" as="targetPoint" />
            </mxGeometry>
          </mxCell>
        </object>
        <object label="&lt;span style=&quot;font-size: 10px&quot;&gt;&lt;b&gt;%name%&lt;/b&gt;&lt;br&gt;[%technology%]&lt;br&gt;&lt;/span&gt;" placeholders="1" name="(same buffer)" technology="mmap()" id="QSGKsO-Dh6E3M1oI7asi-27">
          <mxCell style="endArrow=block;html=1;fontSize=10;fontColor=#404040;strokeWidth=1;endFill=1;strokeColor=#828282;elbow=vertical;exitX=0;exitY=0.5;exitDx=0;exitDy=0;entryX=1;entryY=0.5;entryDx=0;entryDy=0;" parent="1" source="QSGKsO-Dh6E3M1oI7asi-13" target="QSGKsO-Dh6E3M1oI7asi-8" edge="1">
            <mxGeometry width="50" height="50" relative="1" as="geometry">
              <mxPoint x="320" y="500" as="sourcePoint" />
              <mxPoint x="520" y="500" as="targetPoint" />
            </mxGeometry>
          </mxCell>
        </object>
        <object label="&lt;span style=&quot;font-size: 10px&quot;&gt;&lt;b&gt;%name%&lt;/b&gt;&lt;br&gt;[%technology%]&lt;br&gt;&lt;/span&gt;" placeholders="1" name="(same buffer)" technology="mmap()" id="QSGKsO-Dh6E3M1oI7asi-29">
          <mxCell style="endArrow=block;html=1;fontSize=10;fontColor=#404040;strokeWidth=1;endFill=1;strokeColor=#828282;elbow=vertical;exitX=1;exitY=0.5;exitDx=0;exitDy=0;entryX=0;entryY=0.5;entryDx=0;entryDy=0;" parent="1" source="QSGKsO-Dh6E3M1oI7asi-14" target="QSGKsO-Dh6E3M1oI7asi-16" edge="1">
            <mxGeometry width="50" height="50" relative="1" as="geometry">
              <mxPoint x="820" y="510" as="sourcePoint" />
              <mxPoint x="690" y="510" as="targetPoint" />
            </mxGeometry>
          </mxCell>
        </object>
        <object label="&lt;b&gt;%name%&lt;/b&gt;&lt;br style=&quot;font-size: 10px&quot;&gt;[%technology%]" placeholders="1" name="acquire()" technology="IBinder" id="QSGKsO-Dh6E3M1oI7asi-31">
          <mxCell style="endArrow=block;html=1;fontSize=10;fontColor=#404040;strokeWidth=1;endFill=1;dashed=1;dashPattern=8 8;strokeColor=#828282;elbow=vertical;entryX=-0.011;entryY=0.2;entryDx=0;entryDy=0;entryPerimeter=0;" parent="1" edge="1">
            <mxGeometry width="50" height="50" relative="1" as="geometry">
              <mxPoint x="700" y="210" as="sourcePoint" />
              <mxPoint x="920" y="210" as="targetPoint" />
            </mxGeometry>
          </mxCell>
        </object>
        <object label="&lt;b&gt;%name%&lt;/b&gt;&lt;br style=&quot;font-size: 10px&quot;&gt;[%technology%]" placeholders="1" name="release()" technology="IBinder" id="QSGKsO-Dh6E3M1oI7asi-32">
          <mxCell style="endArrow=block;html=1;fontSize=10;fontColor=#404040;strokeWidth=1;endFill=1;dashed=1;dashPattern=8 8;strokeColor=#828282;elbow=vertical;entryX=1;entryY=0.75;entryDx=0;entryDy=0;" parent="1" edge="1">
            <mxGeometry width="50" height="50" relative="1" as="geometry">
              <mxPoint x="920" y="270" as="sourcePoint" />
              <mxPoint x="700" y="270" as="targetPoint" />
            </mxGeometry>
          </mxCell>
        </object>
        <object label="&lt;b&gt;%name%&lt;/b&gt;&lt;br style=&quot;font-size: 10px&quot;&gt;[%technology%]" placeholders="1" name="Uses" technology="function call" id="QSGKsO-Dh6E3M1oI7asi-33">
          <mxCell style="endArrow=block;html=1;fontSize=10;fontColor=#404040;strokeWidth=1;endFill=1;dashed=1;dashPattern=8 8;strokeColor=#828282;elbow=vertical;entryX=0.5;entryY=0;entryDx=0;entryDy=0;exitX=0.5;exitY=1;exitDx=0;exitDy=0;" parent="1" source="QSGKsO-Dh6E3M1oI7asi-3" target="QSGKsO-Dh6E3M1oI7asi-8" edge="1">
            <mxGeometry width="50" height="50" relative="1" as="geometry">
              <mxPoint x="120" y="120" as="sourcePoint" />
              <mxPoint x="320" y="120" as="targetPoint" />
            </mxGeometry>
          </mxCell>
        </object>
        <object label="&lt;b&gt;%name%&lt;/b&gt;&lt;br style=&quot;font-size: 10px&quot;&gt;[%technology%]" placeholders="1" name="Uses" technology="function call" id="QSGKsO-Dh6E3M1oI7asi-34">
          <mxCell style="endArrow=block;html=1;fontSize=10;fontColor=#404040;strokeWidth=1;endFill=1;dashed=1;dashPattern=8 8;strokeColor=#828282;elbow=vertical;entryX=0.5;entryY=0;entryDx=0;entryDy=0;exitX=0.367;exitY=1;exitDx=0;exitDy=0;exitPerimeter=0;" parent="1" source="QSGKsO-Dh6E3M1oI7asi-10" target="QSGKsO-Dh6E3M1oI7asi-13" edge="1">
            <mxGeometry width="50" height="50" relative="1" as="geometry">
              <mxPoint x="200" y="315" as="sourcePoint" />
              <mxPoint x="200" y="370" as="targetPoint" />
            </mxGeometry>
          </mxCell>
        </object>
        <object label="&lt;b&gt;%name%&lt;/b&gt;&lt;br style=&quot;font-size: 10px&quot;&gt;[%technology%]" placeholders="1" name="Uses" technology="function call" id="QSGKsO-Dh6E3M1oI7asi-35">
          <mxCell style="endArrow=block;html=1;fontSize=10;fontColor=#404040;strokeWidth=1;endFill=1;dashed=1;dashPattern=8 8;strokeColor=#828282;elbow=vertical;entryX=0.5;entryY=0;entryDx=0;entryDy=0;exitX=0.578;exitY=1.008;exitDx=0;exitDy=0;exitPerimeter=0;" parent="1" source="QSGKsO-Dh6E3M1oI7asi-10" target="QSGKsO-Dh6E3M1oI7asi-14" edge="1">
            <mxGeometry width="50" height="50" relative="1" as="geometry">
              <mxPoint x="630" y="300" as="sourcePoint" />
              <mxPoint x="510" y="370" as="targetPoint" />
            </mxGeometry>
          </mxCell>
        </object>
        <object label="&lt;b&gt;%name%&lt;/b&gt;&lt;br style=&quot;font-size: 10px&quot;&gt;[%technology%]" placeholders="1" name="Uses" technology="function call" id="QSGKsO-Dh6E3M1oI7asi-36">
          <mxCell style="endArrow=block;html=1;fontSize=10;fontColor=#404040;strokeWidth=1;endFill=1;dashed=1;dashPattern=8 8;strokeColor=#828282;elbow=vertical;entryX=0.5;entryY=0;entryDx=0;entryDy=0;exitX=0.5;exitY=1;exitDx=0;exitDy=0;" parent="1" source="QSGKsO-Dh6E3M1oI7asi-15" edge="1">
            <mxGeometry width="50" height="50" relative="1" as="geometry">
              <mxPoint x="910" y="305.96000000000004" as="sourcePoint" />
              <mxPoint x="1005.96" y="360" as="targetPoint" />
            </mxGeometry>
          </mxCell>
        </object>
        <object label="&lt;div&gt;&lt;span style=&quot;font-size: 14px&quot;&gt;&lt;b&gt;%name%&lt;/b&gt;&lt;/span&gt;&lt;/div&gt;&lt;div&gt;&lt;span style=&quot;font-size: 8px&quot;&gt;[Component: %technology%]&lt;/span&gt;&lt;/div&gt;&lt;div&gt;&lt;span style=&quot;font-size: 8px&quot;&gt;&lt;br&gt;&lt;/span&gt;&lt;/div&gt;&lt;div&gt;&lt;font size=&quot;1&quot;&gt;%description%&lt;/font&gt;&lt;/div&gt;" placeholders="1" name="Listener" technology="C++" description="The Listener for Consumer." id="YujYjbEBNDsiloCPU_Lg-1">
          <mxCell style="rounded=0;whiteSpace=wrap;html=1;fillColor=#85baf0;fontColor=#000000;strokeColor=#6992BD;resizable=0;" parent="1" vertex="1">
            <mxGeometry x="520" width="180" height="120" as="geometry" />
          </mxCell>
        </object>
        <object label="&lt;div&gt;&lt;span style=&quot;font-size: 14px&quot;&gt;&lt;b&gt;%name%&lt;/b&gt;&lt;/span&gt;&lt;/div&gt;&lt;div&gt;&lt;span style=&quot;font-size: 8px&quot;&gt;[Component: %technology%]&lt;/span&gt;&lt;/div&gt;&lt;div&gt;&lt;span style=&quot;font-size: 8px&quot;&gt;&lt;br&gt;&lt;/span&gt;&lt;/div&gt;&lt;div&gt;&lt;font size=&quot;1&quot;&gt;%description%&lt;/font&gt;&lt;/div&gt;" placeholders="1" name="SurfaceFlinger" technology="C++" description="Composition Thread." id="YujYjbEBNDsiloCPU_Lg-2">
          <mxCell style="rounded=0;whiteSpace=wrap;html=1;fillColor=#85baf0;fontColor=#000000;strokeColor=#6992BD;resizable=0;" parent="1" vertex="1">
            <mxGeometry x="920" width="180" height="120" as="geometry" />
          </mxCell>
        </object>
        <object label="&lt;b&gt;%name%&lt;/b&gt;&lt;br style=&quot;font-size: 10px&quot;&gt;[%technology%]" placeholders="1" name="Uses" technology="function call" id="YujYjbEBNDsiloCPU_Lg-5">
          <mxCell style="endArrow=block;html=1;fontSize=10;fontColor=#404040;strokeWidth=1;endFill=1;dashed=1;dashPattern=8 8;strokeColor=#828282;elbow=vertical;exitX=0.5;exitY=0;exitDx=0;exitDy=0;" parent="1" source="QSGKsO-Dh6E3M1oI7asi-10" edge="1">
            <mxGeometry width="50" height="50" relative="1" as="geometry">
              <mxPoint x="610" y="180" as="sourcePoint" />
              <mxPoint x="610" y="120" as="targetPoint" />
            </mxGeometry>
          </mxCell>
        </object>
        <object label="&lt;b&gt;%name%&lt;/b&gt;&lt;br style=&quot;font-size: 10px&quot;&gt;[%technology%]" placeholders="1" name="Uses" technology="function call" id="YujYjbEBNDsiloCPU_Lg-6">
          <mxCell style="endArrow=block;html=1;fontSize=10;fontColor=#404040;strokeWidth=1;endFill=1;dashed=1;dashPattern=8 8;strokeColor=#828282;elbow=vertical;entryX=0.5;entryY=0;entryDx=0;entryDy=0;" parent="1" source="YujYjbEBNDsiloCPU_Lg-2" target="QSGKsO-Dh6E3M1oI7asi-15" edge="1">
            <mxGeometry width="50" height="50" relative="1" as="geometry">
              <mxPoint x="1020" y="315" as="sourcePoint" />
              <mxPoint x="1010" y="180" as="targetPoint" />
            </mxGeometry>
          </mxCell>
        </object>
        <object label="&lt;b&gt;%name%&lt;/b&gt;&lt;br style=&quot;font-size: 10px&quot;&gt;[%technology%]" placeholders="1" name="onFrameAvailable()" technology="IBinder" id="YujYjbEBNDsiloCPU_Lg-7">
          <mxCell style="endArrow=block;html=1;fontSize=10;fontColor=#404040;strokeWidth=1;endFill=1;dashed=1;dashPattern=8 8;strokeColor=#828282;elbow=vertical;entryX=-0.011;entryY=0.2;entryDx=0;entryDy=0;entryPerimeter=0;" parent="1" edge="1">
            <mxGeometry width="50" height="50" relative="1" as="geometry">
              <mxPoint x="700" y="59.5" as="sourcePoint" />
              <mxPoint x="920" y="59.5" as="targetPoint" />
            </mxGeometry>
          </mxCell>
        </object>
        <object label="&lt;font style=&quot;font-size: 10px&quot;&gt;&lt;b&gt;%name%&lt;/b&gt;&lt;br style=&quot;font-size: 10px&quot;&gt;[Container]&lt;/font&gt;" placeholders="1" name="Business Level" id="0vbsiYUbB-kdxmA2h0WD-1">
          <mxCell style="rounded=0;whiteSpace=wrap;html=1;strokeColor=#828282;fillColor=none;fontColor=#000000;align=left;labelPosition=center;verticalLabelPosition=middle;verticalAlign=bottom;dashed=1;strokeWidth=1;perimeterSpacing=0;spacing=2;spacingTop=0;fontSize=10;dashPattern=8 8;container=0;" parent="1" vertex="1">
            <mxGeometry x="-240" y="-230" width="570" height="180" as="geometry">
              <mxRectangle x="560" y="40" width="110" height="30" as="alternateBounds" />
            </mxGeometry>
          </mxCell>
        </object>
        <object label="&lt;div&gt;&lt;span style=&quot;font-size: 14px&quot;&gt;&lt;b&gt;%name%&lt;/b&gt;&lt;/span&gt;&lt;/div&gt;&lt;div&gt;&lt;span style=&quot;font-size: 8px&quot;&gt;[Container: %technology%]&lt;/span&gt;&lt;/div&gt;&lt;div&gt;&lt;span style=&quot;font-size: 8px&quot;&gt;&lt;br&gt;&lt;/span&gt;&lt;/div&gt;&lt;div&gt;&lt;font size=&quot;1&quot;&gt;%description%&lt;/font&gt;&lt;/div&gt;" placeholders="1" name="Logic and Algorithm" technology="JAVA, C++, Python" description="Application Logic Level." id="0vbsiYUbB-kdxmA2h0WD-2">
          <mxCell style="rounded=0;whiteSpace=wrap;html=1;fillColor=#3B8CD2;fontColor=#FFFFFF;strokeColor=#2F6FA6;resizable=0;" parent="1" vertex="1">
            <mxGeometry x="-60" y="-210" width="180" height="120" as="geometry" />
          </mxCell>
        </object>
        <object label="&lt;div&gt;&lt;span style=&quot;font-size: 14px&quot;&gt;&lt;b&gt;%name%&lt;/b&gt;&lt;/span&gt;&lt;/div&gt;&lt;div&gt;&lt;span style=&quot;font-size: 8px&quot;&gt;[Container: %technology%]&lt;/span&gt;&lt;/div&gt;&lt;div&gt;&lt;span style=&quot;font-size: 8px&quot;&gt;&lt;br&gt;&lt;/span&gt;&lt;/div&gt;&lt;div&gt;&lt;font size=&quot;1&quot;&gt;%description%&lt;/font&gt;&lt;/div&gt;" placeholders="1" name="Renderer" technology="C++ (hwui, skia)" description="Rendering module of Application." id="0vbsiYUbB-kdxmA2h0WD-3">
          <mxCell style="rounded=0;whiteSpace=wrap;html=1;fillColor=#3B8CD2;fontColor=#FFFFFF;strokeColor=#2F6FA6;resizable=0;" parent="1" vertex="1">
            <mxGeometry x="-220" y="185" width="180" height="120" as="geometry" />
          </mxCell>
        </object>
        <object label="&lt;div&gt;&lt;span style=&quot;font-size: 14px&quot;&gt;&lt;b&gt;%name%&lt;/b&gt;&lt;/span&gt;&lt;/div&gt;&lt;div&gt;&lt;span style=&quot;font-size: 8px&quot;&gt;[Container: %technology%]&lt;/span&gt;&lt;/div&gt;&lt;div&gt;&lt;span style=&quot;font-size: 8px&quot;&gt;&lt;br&gt;&lt;/span&gt;&lt;/div&gt;&lt;div&gt;&lt;font size=&quot;1&quot;&gt;%description%&lt;/font&gt;&lt;/div&gt;" placeholders="1" name="VSYNC" technology="C++" description="VSYNC Thread" id="0vbsiYUbB-kdxmA2h0WD-4">
          <mxCell style="rounded=0;whiteSpace=wrap;html=1;fillColor=#3B8CD2;fontColor=#FFFFFF;strokeColor=#2F6FA6;resizable=0;" parent="1" vertex="1">
            <mxGeometry x="920" y="-210" width="180" height="120" as="geometry" />
          </mxCell>
        </object>
        <object label="&lt;b&gt;%name%&lt;/b&gt;&lt;br style=&quot;font-size: 10px&quot;&gt;[%technology%]" placeholders="1" name="VSYNC trigger" technology="event message" id="0vbsiYUbB-kdxmA2h0WD-5">
          <mxCell style="endArrow=block;html=1;fontSize=10;fontColor=#404040;strokeWidth=1;endFill=1;dashed=1;dashPattern=8 8;strokeColor=#828282;elbow=vertical;entryX=0.5;entryY=0;entryDx=0;entryDy=0;" parent="1" source="0vbsiYUbB-kdxmA2h0WD-4" target="YujYjbEBNDsiloCPU_Lg-2" edge="1">
            <mxGeometry width="50" height="50" relative="1" as="geometry">
              <mxPoint x="650" y="350" as="sourcePoint" />
              <mxPoint x="850" y="350" as="targetPoint" />
            </mxGeometry>
          </mxCell>
        </object>
        <object label="&lt;b&gt;%name%&lt;/b&gt;&lt;br style=&quot;font-size: 10px&quot;&gt;[%technology%]" placeholders="1" name="Uses" technology="function call" id="0vbsiYUbB-kdxmA2h0WD-6">
          <mxCell style="endArrow=block;html=1;fontSize=10;fontColor=#404040;strokeWidth=1;endFill=1;dashed=1;dashPattern=8 8;strokeColor=#828282;elbow=vertical;entryX=0.444;entryY=0.017;entryDx=0;entryDy=0;exitX=0.5;exitY=1;exitDx=0;exitDy=0;entryPerimeter=0;" parent="1" source="0vbsiYUbB-kdxmA2h0WD-2" target="0vbsiYUbB-kdxmA2h0WD-3" edge="1">
            <mxGeometry width="50" height="50" relative="1" as="geometry">
              <mxPoint x="216.05999999999995" y="-10" as="sourcePoint" />
              <mxPoint x="130" y="45" as="targetPoint" />
            </mxGeometry>
          </mxCell>
        </object>
        <object label="&lt;b&gt;%name%&lt;/b&gt;&lt;br style=&quot;font-size: 10px&quot;&gt;[%technology%]" placeholders="1" name="eglSwapBuffers()" technology="function call" id="0vbsiYUbB-kdxmA2h0WD-7">
          <mxCell style="endArrow=block;html=1;fontSize=10;fontColor=#404040;strokeWidth=1;endFill=1;dashed=1;dashPattern=8 8;strokeColor=#828282;elbow=vertical;entryX=0.5;entryY=0;entryDx=0;entryDy=0;exitX=0.5;exitY=1;exitDx=0;exitDy=0;" parent="1" source="0vbsiYUbB-kdxmA2h0WD-2" target="QSGKsO-Dh6E3M1oI7asi-3" edge="1">
            <mxGeometry width="50" height="50" relative="1" as="geometry">
              <mxPoint x="40" y="-80" as="sourcePoint" />
              <mxPoint x="-130.07999999999993" y="197.03999999999996" as="targetPoint" />
            </mxGeometry>
          </mxCell>
        </object>
        <mxCell id="0vbsiYUbB-kdxmA2h0WD-10" style="edgeStyle=orthogonalEdgeStyle;rounded=0;orthogonalLoop=1;jettySize=auto;html=1;" parent="1" source="0vbsiYUbB-kdxmA2h0WD-9" edge="1">
          <mxGeometry relative="1" as="geometry">
            <mxPoint x="130" y="80" as="targetPoint" />
            <Array as="points">
              <mxPoint x="140" y="80" />
            </Array>
          </mxGeometry>
        </mxCell>
        <object label="User defined frequency" id="0vbsiYUbB-kdxmA2h0WD-9">
          <mxCell style="text;html=1;strokeColor=none;fillColor=none;align=center;verticalAlign=middle;whiteSpace=wrap;rounded=0;" parent="1" vertex="1">
            <mxGeometry x="170" y="70" width="140" height="20" as="geometry" />
          </mxCell>
        </object>
        <mxCell id="0vbsiYUbB-kdxmA2h0WD-14" style="edgeStyle=orthogonalEdgeStyle;rounded=0;orthogonalLoop=1;jettySize=auto;html=1;" parent="1" source="0vbsiYUbB-kdxmA2h0WD-13" edge="1">
          <mxGeometry relative="1" as="geometry">
            <mxPoint x="1010" y="-70" as="targetPoint" />
          </mxGeometry>
        </mxCell>
        <object label="VSYNC&amp;nbsp;frequency" id="0vbsiYUbB-kdxmA2h0WD-13">
          <mxCell style="text;html=1;strokeColor=none;fillColor=none;align=center;verticalAlign=middle;whiteSpace=wrap;rounded=0;" parent="1" vertex="1">
            <mxGeometry x="800" y="-80" width="110" height="20" as="geometry" />
          </mxCell>
        </object>
        <object label="&lt;b&gt;%name%&lt;/b&gt;&lt;br style=&quot;font-size: 10px&quot;&gt;[%technology%]" placeholders="1" name="Uses" technology="EGLSurface" id="0vbsiYUbB-kdxmA2h0WD-19">
          <mxCell style="endArrow=block;html=1;fontSize=10;fontColor=#404040;strokeWidth=1;endFill=1;dashed=1;dashPattern=8 8;strokeColor=#828282;elbow=vertical;exitX=1;exitY=0.5;exitDx=0;exitDy=0;" parent="1" source="0vbsiYUbB-kdxmA2h0WD-3" target="QSGKsO-Dh6E3M1oI7asi-3" edge="1">
            <mxGeometry width="50" height="50" relative="1" as="geometry">
              <mxPoint x="40" y="-80" as="sourcePoint" />
              <mxPoint x="-130.07999999999993" y="197.03999999999996" as="targetPoint" />
            </mxGeometry>
          </mxCell>
        </object>
      </root>
    </mxGraphModel>
  </diagram>
</mxfile>
